<?xml version="1.0" encoding="UTF-8" standalone="no"?>
<!DOCTYPE svg PUBLIC "-//W3C//DTD SVG 1.1//EN" "http://www.w3.org/Graphics/SVG/1.1/DTD/svg11.dtd">
<svg width="100%" height="100%" viewBox="0 0 1200 1200" version="1.1" xmlns="http://www.w3.org/2000/svg" xmlns:xlink="http://www.w3.org/1999/xlink" xml:space="preserve" xmlns:serif="http://www.serif.com/" style="fill-rule:evenodd;clip-rule:evenodd;stroke-linejoin:round;stroke-miterlimit:2;">
    <g>
        <g>
            <g transform="matrix(2.43385,0,0,2.43385,-29.7295,-20.9259)">
                <g transform="matrix(0.410871,0,0,0.410871,12.215,8.59785)">
                    <path d="M711.045,366.525C675.17,363.438 639.302,361.834 603.343,361.745L603.346,361.745C569.98,361.662 536.53,362.885 502.926,365.424L447.34,302.497L353.247,272.115C394.907,240.718 442.652,216.209 495.919,197.946L437.044,131.295L314.451,239.591L173.483,80.004C177.839,65.802 174.984,49.751 164.429,37.801C155.915,28.162 144.13,23.124 132.217,22.886L132.219,22.888C131.423,22.871 130.625,22.876 129.834,22.903C119.943,23.234 110.107,26.88 102.112,33.94C83.839,50.082 82.111,77.979 98.252,96.252C108.947,108.358 124.796,113.155 139.594,110.349L280.363,269.705L157.762,378.007L216.632,444.646C240.216,392.639 270.798,348.548 307.724,311.636L322.93,391.268C297.758,396.559 272.442,402.567 246.964,409.294C244.203,531.328 265.213,670.894 312.506,800.793L117.446,1021.62L87.753,1177.12L238.408,1128.46L387.574,959.596C441.086,1048.55 510.512,1125.09 596.956,1177.12C679.622,1127.16 748.222,1052.13 802.412,964.376L952.329,1128.46L1102.98,1177.12L1073.29,1021.62L879.479,808.1C930.827,675.729 955.636,532.707 953.099,409.267C931.703,403.618 910.365,398.459 889.07,393.799L892.275,311.633C929.203,348.545 959.79,392.637 983.374,444.643L1042.24,378.004L919.638,269.703L1060.41,110.346C1075.2,113.153 1091.06,108.355 1101.75,96.249C1117.89,77.976 1116.16,50.079 1097.89,33.938C1089.9,26.88 1080.06,23.229 1070.17,22.9C1069.38,22.876 1068.58,22.869 1067.79,22.886L1067.79,22.888C1055.87,23.132 1044.09,28.165 1035.58,37.801C1025.02,49.751 1022.16,65.804 1026.52,80.011L885.55,239.594L762.957,131.295L704.087,197.946C757.349,216.209 805.092,240.716 846.759,272.11L752.666,302.497L711.045,366.525Z" style="fill:rgb(100,94,86);fill-rule:nonzero;stroke:rgb(249,241,220);stroke-width:15px;"/>
                </g>
                <g transform="matrix(1.20668,0,0,1.20668,-59.0758,-55.2661)">
                    <path d="M264.512,176.512C224.952,176.414 185.045,181.738 143.879,192.607C141.833,283.055 178.363,401.957 262.349,452.512C343.644,403.382 384.751,282.61 382.901,192.598C343.151,182.102 303.991,176.61 264.511,176.512L264.512,176.512Z" style="fill:rgb(91,29,18);fill-rule:nonzero;"/>
                    <path d="M264.511,176.512L264.512,176.512L264.511,176.512L264.511,176.512C224.952,176.414 185.045,181.738 143.879,192.607C141.833,283.055 178.363,401.957 262.349,452.512C343.644,403.382 384.751,282.61 382.901,192.598C343.151,182.102 303.991,176.61 264.511,176.512ZM264.493,191.834L264.492,191.834C298.879,191.92 333.031,196.255 367.578,204.538C365.916,285.218 330.649,387.224 262.322,434.295C191.947,386.235 160.299,285.514 159.151,204.559C194.969,195.97 229.858,191.749 264.474,191.834L264.493,191.834ZM264.503,191.816L264.493,191.834L264.511,191.834L264.503,191.816Z"/>
                </g>
            </g>
            <g transform="matrix(5.02884,0,0,5.02884,-1078.87,-679.741)">
                <path d="M359,292.1C359.6,290.9 359.9,289.4 359.9,287.9C359.9,286.4 359.4,284.9 358.8,283.7L360.6,284C361.8,284.2 364.1,285.7 364.1,287.9C364.1,290.6 361.4,291.8 359,292.1ZM359,260.8C353.4,260 344.9,263.8 340.5,269.2C341.4,265.6 345.3,259.7 350.1,257C350.1,257 347.7,260 348.7,260.5C350.2,261.3 354.1,255.1 359.2,254.9C359.2,254.9 355.4,256.7 356.2,258.1C356.8,259 359.4,256.9 363.7,256.9C369.1,256.9 373.9,260.2 376.2,262.8C372.4,261.7 365.4,263.6 363.3,265.4C360.1,263 354,263.3 350.5,267.4C346.1,272.4 343.4,278.2 342.7,280C341.2,278.8 339.8,277.7 338.9,277C338.1,276.4 337.4,276.1 336.6,275.8C340.8,269.9 349.2,261.2 359,260.8ZM300.4,243.9C299.8,236.8 303.1,232.9 304.6,231.3C307.9,227.8 312.4,225.9 319.2,226.2C329.7,226.8 334.8,234 334.8,241.7C334.8,245.8 332.7,251.2 329.7,254.6C329.5,254.4 329.2,254.1 329.1,254C327.1,252.2 324.3,249.9 322.5,247.2C326.1,241.9 324.6,233.7 318.1,233.7C314,233.7 310.7,237.9 312.1,243C311.5,245.3 311.2,248.3 311.6,250.5C306.9,248.1 305.4,244.9 304.5,242.1C303.3,244.5 302.5,247.8 303.4,251C303.6,251.3 300.9,248.9 300.4,243.9ZM303.1,256.7C302.6,258.4 296.5,260.2 293.5,263.2C298,262.3 300.1,263 300.9,264.9C301.4,266.3 300.7,268.1 300.4,270.2C301.9,268.5 307,265.1 310.8,264.3C309.9,264 307.6,263.5 306.7,263.5C309.4,260.3 315.4,259.3 318.7,260C316.6,259.8 312.4,261.1 310.7,262.4C312.2,262.7 313.6,263 314.8,263.5C312.8,264.3 310.3,266.7 309.4,269.2C312,267.4 317.2,267.8 318.1,271.6C318.7,274.2 316.9,276.4 316,276.9C316.8,277.1 318.6,276.9 319.3,276.4C319,277.5 317.5,279.3 316.4,279.6C319.1,279.6 323,277.8 324.1,275.2C324.1,275.2 322.4,275.8 321.7,275C320.9,274.2 322,270.9 322,270.9C322,270.9 320.9,272.3 320,271.5C319.1,270.6 320.3,267.6 320.8,267C319.9,266.7 317.5,266.4 316.4,266.5C319.4,265.4 326.2,264.8 326.9,266.2C327.5,267.3 326,269.4 326,269.4C327.2,269.2 330.7,269.4 331.9,270.8C333.1,272.3 332.4,274.3 332.4,274.3C335.1,272.9 337.5,268.7 336.9,264.5C336.6,265.4 335.4,266.8 334.2,267.1C334.4,265.7 333.3,265 332.4,264.7C332.9,262.1 331.8,258.8 328,255.2C324.8,252 318.8,247.8 319.1,242.3C318.2,243.5 317.4,247 318.3,248.9C320.9,251.9 326.4,255.2 327.8,260.3C325.4,254.3 313.7,249.6 314.1,241.4C312.6,242.9 311.7,248.8 312.9,251.8C315.2,253.2 317.1,255.4 317.4,257.5C315.3,252.7 306.7,251.8 304.3,246.1C303.7,248.2 304,250.8 305.2,252.4C305.2,252.4 303.1,251.6 298.6,251.8C300.2,252.3 303.4,255 303.1,256.7ZM327.4,263.6C324.8,263.6 324.1,261.6 323.5,259.5C326.5,260.8 327.4,263.6 327.4,263.6ZM360.2,302.8C362,304.5 366.4,305.7 368.6,304.6C367.2,307 360.9,310.3 355.1,308.8C349.5,307.3 347,302 347,298.6C344.3,301.3 345,305.5 347,307.3C344.9,306.7 341.6,304.4 341,300.4C340.5,296.9 342.5,292.9 338.9,289.7C336.8,287.7 333.3,285 331.2,283.4C326.7,279.9 328.3,277.2 327.4,275.4C326.6,273.9 324.7,273.1 323.6,271.8C322.4,270.4 322.5,268.5 323.1,267.4C322.9,268.9 324,270.1 325.5,270.7C327.2,271.3 328.5,270.9 330,271.6C331.7,272.7 330.9,275.2 332.1,276.3C333.2,277.1 336,276 338.3,278C340.7,280 346,284.3 348.2,286.1C352.3,289.4 356.5,285.6 355.1,281.7C359.3,284.1 359.8,291 356.3,293.4C359.6,294.2 365.5,292.6 365.5,288C365.5,285.1 362.8,283 361,282.7C367.8,282.1 373.6,286.8 373.6,292.8C373.4,298.9 367.2,303.7 360.2,302.8ZM337.8,290.5C338,290.7 338.1,290.8 338.3,291C334.7,298.4 327.9,307.8 315,307.8C310.3,307.8 306.1,306.1 303.1,303.9C302,303.1 301.1,302.2 300.4,301.2C299.9,300.6 299.5,300.1 299,299.5C298.4,298.7 297.9,298.7 297.6,299.2C297,300.1 298.1,303 298.1,303C287.9,293.4 293.1,279.3 293.3,278.7C293.9,276.9 293.3,276.6 292.7,276.9C291.8,277.2 290.7,278.7 290.7,278.7C291.5,270.1 299.4,264.9 299.4,264.9L299.6,265.1C300.5,266.5 299.1,268.1 299,273.5C300.5,271.4 306.4,267.3 309.7,266.1C308.6,267.5 307.7,269.4 307.7,272.3C307.7,272.3 310.1,269.6 313.1,269.6C313.9,269.6 314.6,269.8 315.2,270.1C303.8,281.2 308.6,295 318.2,295C323.6,295 329,289 331.3,284.9C333,286.4 335.8,288.8 337.8,290.5Z" style="fill:rgb(154,45,30);fill-rule:nonzero;"/>
            </g>
        </g>
    </g>
</svg>
